<svg baseProfile="full" height="28" version="1.1" viewBox="0 0 187 28" width="187" xmlns="http://www.w3.org/2000/svg" xmlns:ev="http://www.w3.org/2001/xml-events" xmlns:xlink="http://www.w3.org/1999/xlink"><defs /><g><path d="M2.0444444444444447 21.48148148148148V0.7407407407407405H6.044444444444444V18.37037037037037H15.14074074074074V21.48148148148148Z M18.57777777777778 21.48148148148148V6.548148148148147H22.57777777777778V21.48148148148148ZM20.592592592592595 4.503703703703703Q19.52592592592593 4.503703703703703 18.829629629629633 3.8666666666666654Q18.133333333333336 3.2296296296296276 18.133333333333336 2.2518518518518498Q18.133333333333336 1.274074074074072 18.829629629629633 0.637037037037036Q19.52592592592593 0.0 20.592592592592595 0.0Q21.68888888888889 0.0 22.385185185185186 0.637037037037036Q23.081481481481482 1.274074074074072 23.081481481481482 2.2518518518518498Q23.081481481481482 3.2296296296296276 22.385185185185186 3.8666666666666654Q21.68888888888889 4.503703703703703 20.592592592592595 4.503703703703703Z M35.43703703703704 21.837037037037035Q34.28148148148148 21.837037037037035 33.37777777777778 21.540740740740738Q32.474074074074075 21.244444444444444 31.77777777777778 20.725925925925925Q31.081481481481482 20.207407407407405 30.607407407407408 19.555555555555554L30.162962962962965 21.48148148148148H26.607407407407408V0.14814814814814525H30.607407407407408V8.622222222222222Q31.31851851851852 7.585185185185184 32.48888888888889 6.8888888888888875Q33.65925925925926 6.192592592592591 35.407407407407405 6.192592592592591Q37.48148148148148 6.192592592592591 39.096296296296295 7.2148148148148135Q40.71111111111111 8.237037037037036 41.644444444444446 10.0Q42.57777777777778 11.762962962962963 42.57777777777778 14.044444444444444Q42.57777777777778 16.266666666666666 41.644444444444446 18.044444444444444Q40.71111111111111 19.822222222222223 39.111111111111114 20.82962962962963Q37.51111111111111 21.837037037037035 35.43703703703704 21.837037037037035ZM34.48888888888889 18.340740740740742Q35.67407407407407 18.340740740740742 36.577777777777776 17.79259259259259Q37.48148148148148 17.244444444444444 37.98518518518519 16.28148148148148Q38.48888888888889 15.318518518518518 38.48888888888889 14.044444444444444Q38.48888888888889 12.770370370370369 37.98518518518519 11.777777777777777Q37.48148148148148 10.785185185185185 36.577777777777776 10.237037037037037Q35.67407407407407 9.688888888888888 34.48888888888889 9.688888888888888Q33.333333333333336 9.688888888888888 32.42962962962963 10.237037037037037Q31.525925925925925 10.785185185185185 31.007407407407406 11.762962962962963Q30.488888888888887 12.74074074074074 30.488888888888887 14.014814814814814Q30.488888888888887 15.288888888888888 31.007407407407406 16.281481481481478Q31.525925925925925 17.274074074074072 32.42962962962963 17.807407407407407Q33.333333333333336 18.340740740740742 34.48888888888889 18.340740740740742Z M53.18518518518519 21.837037037037035Q50.93333333333334 21.837037037037035 49.2 20.874074074074073Q47.46666666666667 19.91111111111111 46.50370370370371 18.177777777777777Q45.540740740740745 16.444444444444443 45.540740740740745 14.162962962962961Q45.540740740740745 11.822222222222221 46.488888888888894 10.029629629629628Q47.437037037037044 8.237037037037036 49.17037037037038 7.2148148148148135Q50.90370370370371 6.192592592592591 53.18518518518519 6.192592592592591Q55.40740740740741 6.192592592592591 57.06666666666668 7.170370370370369Q58.725925925925935 8.148148148148147 59.64444444444445 9.807407407407407Q60.56296296296297 11.466666666666665 60.56296296296297 13.57037037037037Q60.56296296296297 13.866666666666667 60.56296296296297 14.237037037037037Q60.56296296296297 14.607407407407408 60.50370370370371 14.992592592592592H48.38518518518519V12.562962962962962H56.53333333333334Q56.44444444444445 11.11111111111111 55.51111111111112 10.281481481481482Q54.57777777777778 9.45185185185185 53.18518518518519 9.45185185185185Q52.177777777777784 9.45185185185185 51.31851851851852 9.911111111111111Q50.45925925925926 10.37037037037037 49.970370370370375 11.318518518518518Q49.48148148148149 12.266666666666666 49.48148148148149 13.718518518518518V14.577777777777776Q49.48148148148149 15.792592592592591 49.94074074074075 16.696296296296296Q50.400000000000006 17.599999999999998 51.229629629629635 18.08888888888889Q52.059259259259264 18.577777777777776 53.15555555555556 18.577777777777776Q54.25185185185185 18.577777777777776 54.97777777777778 18.1037037037037Q55.70370370370371 17.62962962962963 56.059259259259264 16.88888888888889H60.14814814814815Q59.733333333333334 18.28148148148148 58.75555555555556 19.407407407407405Q57.777777777777786 20.53333333333333 56.35555555555556 21.185185185185183Q54.93333333333334 21.837037037037035 53.18518518518519 21.837037037037035Z M63.851851851851855 21.48148148148148V6.548148148148147H67.4074074074074L67.7925925925926 9.303703703703702Q68.32592592592593 8.325925925925924 69.14074074074074 7.644444444444443Q69.95555555555556 6.962962962962962 71.00740740740741 6.577777777777777Q72.05925925925926 6.192592592592591 73.33333333333334 6.192592592592591V10.429629629629629H71.97037037037038Q71.08148148148149 10.429629629629629 70.32592592592593 10.637037037037036Q69.57037037037037 10.844444444444443 69.00740740740741 11.303703703703704Q68.44444444444444 11.762962962962963 68.14814814814815 12.562962962962963Q67.85185185185185 13.362962962962962 67.85185185185185 14.577777777777776V21.48148148148148Z M82.6962962962963 21.48148148148148Q81.12592592592593 21.48148148148148 79.95555555555555 20.992592592592594Q78.78518518518518 20.503703703703703 78.13333333333333 19.36296296296296Q77.48148148148148 18.22222222222222 77.48148148148148 16.237037037037037V9.896296296296295H74.93333333333334V6.548148148148147H77.48148148148148L77.92592592592592 2.488888888888887H81.48148148148148V6.548148148148147H85.42222222222222V9.896296296296295H81.48148148148148V16.296296296296298Q81.48148148148148 17.303703703703704 81.92592592592592 17.68888888888889Q82.37037037037037 18.074074074074073 83.43703703703703 18.074074074074073H85.39259259259259V21.48148148148148Z M90.6962962962963 28.0 94.31111111111112 19.822222222222223H93.42222222222223L87.43703703703704 6.548148148148147H91.7925925925926L96.05925925925926 16.177777777777777L99.91111111111111 6.548148148148147H104.14814814814815L94.93333333333334 28.0Z M106.7851851851852 21.48148148148148V0.7407407407407405H114.54814814814816Q117.06666666666668 0.7407407407407405 118.72592592592594 1.5999999999999996Q120.3851851851852 2.459259259259259 121.18518518518519 3.9111111111111097Q121.98518518518519 5.3629629629629605 121.98518518518519 7.229629629629629Q121.98518518518519 8.948148148148148 121.21481481481482 10.399999999999999Q120.44444444444446 11.851851851851851 118.7851851851852 12.755555555555555Q117.12592592592594 13.659259259259258 114.54814814814816 13.659259259259258H110.78518518518518V21.48148148148148ZM110.78518518518518 10.429629629629629H114.31111111111112Q116.23703703703704 10.429629629629629 117.08148148148149 9.555555555555554Q117.92592592592594 8.68148148148148 117.92592592592594 7.229629629629629Q117.92592592592594 5.688888888888888 117.08148148148149 4.844444444444444Q116.23703703703704 4.0 114.31111111111112 4.0H110.78518518518518Z M124.88888888888889 21.48148148148148V6.548148148148147H128.44444444444446L128.82962962962964 9.303703703703702Q129.36296296296297 8.325925925925924 130.17777777777778 7.644444444444443Q130.9925925925926 6.962962962962962 132.04444444444442 6.577777777777777Q133.0962962962963 6.192592592592591 134.37037037037038 6.192592592592591V10.429629629629629H133.0074074074074Q132.11851851851853 10.429629629629629 131.36296296296297 10.637037037037036Q130.6074074074074 10.844444444444443 130.04444444444445 11.303703703703704Q129.4814814814815 11.762962962962963 129.1851851851852 12.562962962962963Q128.88888888888889 13.362962962962962 128.88888888888889 14.577777777777776V21.48148148148148Z M137.09629629629632 21.48148148148148V6.548148148148147H141.09629629629632V21.48148148148148ZM139.11111111111111 4.503703703703703Q138.04444444444445 4.503703703703703 137.34814814814814 3.8666666666666654Q136.65185185185186 3.2296296296296276 136.65185185185186 2.2518518518518498Q136.65185185185186 1.274074074074072 137.34814814814814 0.637037037037036Q138.04444444444445 0.0 139.11111111111111 0.0Q140.20740740740743 0.0 140.90370370370374 0.637037037037036Q141.60000000000002 1.274074074074072 141.60000000000002 2.2518518518518498Q141.60000000000002 3.2296296296296276 140.90370370370374 3.8666666666666654Q140.20740740740743 4.503703703703703 139.11111111111111 4.503703703703703Z M145.1259259259259 21.48148148148148V6.548148148148147H148.65185185185186L148.94814814814814 8.977777777777776Q149.62962962962962 7.7333333333333325 150.88888888888889 6.962962962962962Q152.14814814814815 6.192592592592591 153.8962962962963 6.192592592592591Q155.76296296296294 6.192592592592591 157.037037037037 6.962962962962962Q158.3111111111111 7.7333333333333325 158.97777777777776 9.214814814814815Q159.64444444444445 10.696296296296296 159.64444444444445 12.85925925925926V21.48148148148148H155.67407407407407V13.244444444444444Q155.67407407407407 11.466666666666665 154.9185185185185 10.518518518518517Q154.16296296296295 9.57037037037037 152.59259259259258 9.57037037037037Q151.58518518518517 9.57037037037037 150.79999999999998 10.044444444444444Q150.0148148148148 10.518518518518517 149.57037037037037 11.392592592592592Q149.1259259259259 12.266666666666666 149.1259259259259 13.51111111111111V21.48148148148148Z M170.13333333333335 21.48148148148148Q168.56296296296298 21.48148148148148 167.39259259259262 20.992592592592594Q166.22222222222223 20.503703703703703 165.57037037037037 19.36296296296296Q164.91851851851854 18.22222222222222 164.91851851851854 16.237037037037037V9.896296296296295H162.37037037037038V6.548148148148147H164.91851851851854L165.36296296296297 2.488888888888887H168.91851851851854V6.548148148148147H172.8592592592593V9.896296296296295H168.91851851851854V16.296296296296298Q168.91851851851854 17.303703703703704 169.36296296296297 17.68888888888889Q169.80740740740742 18.074074074074073 170.8740740740741 18.074074074074073H172.82962962962964V21.48148148148148Z M182.34074074074073 21.837037037037035Q180.2962962962963 21.837037037037035 178.78518518518518 21.185185185185183Q177.27407407407406 20.53333333333333 176.4148148148148 19.377777777777776Q175.55555555555554 18.22222222222222 175.43703703703704 16.77037037037037H179.4074074074074Q179.55555555555554 17.333333333333332 179.9111111111111 17.79259259259259Q180.26666666666665 18.25185185185185 180.85925925925926 18.51851851851852Q181.45185185185184 18.785185185185185 182.28148148148148 18.785185185185185Q183.0814814814815 18.785185185185185 183.5851851851852 18.562962962962963Q184.08888888888887 18.340740740740742 184.34074074074073 17.955555555555556Q184.59259259259258 17.57037037037037 184.59259259259258 17.155555555555555Q184.59259259259258 16.53333333333333 184.23703703703703 16.19259259259259Q183.88148148148147 15.851851851851851 183.2 15.644444444444444Q182.5185185185185 15.437037037037037 181.54074074074074 15.229629629629628Q180.47407407407408 15.022222222222222 179.45185185185187 14.71111111111111Q178.42962962962963 14.399999999999999 177.62962962962962 13.925925925925924Q176.82962962962964 13.45185185185185 176.35555555555555 12.71111111111111Q175.88148148148147 11.97037037037037 175.88148148148147 10.874074074074073Q175.88148148148147 9.54074074074074 176.59259259259258 8.488888888888887Q177.3037037037037 7.437037037037037 178.66666666666666 6.814814814814814Q180.02962962962962 6.192592592592591 181.95555555555555 6.192592592592591Q184.65185185185186 6.192592592592591 186.22222222222223 7.4074074074074066Q187.7925925925926 8.622222222222222 188.08888888888887 10.755555555555555H184.32592592592593Q184.14814814814815 10.074074074074073 183.54074074074074 9.674074074074074Q182.93333333333334 9.274074074074074 181.92592592592592 9.274074074074074Q180.85925925925926 9.274074074074074 180.2962962962963 9.659259259259258Q179.73333333333332 10.044444444444444 179.73333333333332 10.666666666666666Q179.73333333333332 11.08148148148148 180.1037037037037 11.407407407407407Q180.47407407407408 11.733333333333333 181.15555555555557 11.955555555555556Q181.83703703703702 12.177777777777777 182.8148148148148 12.385185185185184Q184.53333333333333 12.74074074074074 185.83703703703702 13.2Q187.14074074074074 13.659259259259258 187.88148148148147 14.503703703703703Q188.6222222222222 15.348148148148148 188.6222222222222 16.94814814814815Q188.6222222222222 18.37037037037037 187.85185185185185 19.48148148148148Q187.0814814814815 20.59259259259259 185.67407407407407 21.214814814814815Q184.26666666666665 21.837037037037035 182.34074074074073 21.837037037037035Z " fill="rgb(0,0,0)" transform="translate(-2.0444444444444447, 0)" /></g></svg>